<svg xmlns="http://www.w3.org/2000/svg" aria-hidden="true" style="position:absolute;width:0;height:0;overflow:hidden">
  <defs>
    <symbol id="icon-arrow" viewBox="0 0 32 32">
      <path fill="#fff" d="M28 5.333v17.333a1.334 1.334 0 0 1-2.667 0V8.551L6.277 27.609a1.335 1.335 0 0 1-1.886 0 1.335 1.335 0 0 1 0-1.886L23.449 6.667H9.334a1.335 1.335 0 0 1-.943-2.277c.251-.25.589-.39.943-.39h17.333a1.333 1.333 0 0 1 1.334 1.333z" style="fill:var(--color1, #fff)"/>
    </symbol>
    <symbol id="icon-arrow-down" viewBox="0 0 32 32">
      <path d="M26.667 28H9.334a1.334 1.334 0 0 1 0-2.667h14.115L4.391 6.277a1.335 1.335 0 0 1 0-1.886 1.335 1.335 0 0 1 1.886 0l19.056 19.058V9.334a1.333 1.333 0 1 1 2.667 0v17.333a1.334 1.334 0 0 1-1.334 1.334z"/>
    </symbol>
    <symbol id="icon-arrow-left" viewBox="0 0 32 32">
      <path fill="none" stroke="#fff" stroke-linecap="round" stroke-linejoin="round" stroke-width="2.667" d="M28 16H4.667M13.333 25.333 4 16l9.333-9.333" style="stroke:var(--color1, #fff)"/>
    </symbol>
    <symbol id="icon-arrow-right" viewBox="0 0 32 32">
      <path fill="none" stroke="#fff" stroke-linecap="round" stroke-linejoin="round" stroke-width="2.667" d="M4 16h23.333M18.667 25.333 28 16l-9.333-9.333" style="stroke:var(--color1, #fff)"/>
    </symbol>
    <symbol id="icon-close" viewBox="0 0 32 32">
      <path d="m8.532 25.333-1.867-1.867 7.467-7.467-7.467-7.467 1.867-1.867 7.467 7.467 7.467-7.467 1.867 1.867-7.467 7.467 7.467 7.467-1.867 1.867-7.467-7.467-7.467 7.467z"/>
    </symbol>
    <symbol id="icon-menu" viewBox="0 0 32 32">
      <path d="M4 24v-2.667h24V24H4zm0-6.667v-2.667h24v2.667H4zm0-6.666V8h24v2.667H4z"/>
    </symbol>
    <symbol id="icon-play1" viewBox="0 0 32 32">
      <path fill="#c8c8c8" d="M15.496 1.407c-.337.003-.678.021-1.024.055 3.103.938 5.758 2.921 7.704 5.417-4.635-4.49-12.8-5.242-17.423.393 1.972-1.057 4.176-1.605 6.4-1.742C5.295 7.427.28 14.123 1.366 21.459c.318-3.003 1.804-5.595 3.837-7.745-2.391 4.643-2.014 10.713 2.54 14.449-1.588-2.964-2.067-6.4-1.596-9.646-.081 6.569 5.218 13.144 12.599 12.416-3.103-.938-5.758-2.921-7.704-5.418 4.858 4.105 12.385 4.179 17.423-.393-7.417 2.797-13.418 1.329-17.015-1.738-3.7-2.546-4.883-7.566-2.599-11.522a8.681 8.681 0 0 1 1.498-1.916c.174-.199.352-.388.537-.567.144-.081.289-.161.433-.239a8.762 8.762 0 0 1 5.307-1.627 8.655 8.655 0 0 1 4.117 1.162 8.708 8.708 0 0 1 4.349 7.428 3.835 3.835 0 1 1-7.594.356 2.832 2.832 0 1 0 2.764-3.623 5.793 5.793 0 1 0-.754 11.505 1.02 1.02 0 0 0-.031.012c.261-.012.518-.034.771-.064 3.287-.055 7.71-1.622 9.631-4.481-1.144.53-2.229.912-3.28 1.048.404-.47.769-.975 1.093-1.508 2.259-2.795 4.042-7.047 3.361-10.513-.45 1.227-.959 2.315-1.601 3.224-.201-2.907-1.455-5.759-3.976-7.828 1.588 2.964 2.067 6.4 1.596 9.646.078-6.261-4.733-12.527-11.575-12.471z" style="fill:var(--color2, #c8c8c8)"/>
    </symbol>
    <symbol id="icon-play2" viewBox="0 0 32 32">
      <path fill="#c8c8c8" d="M4 4v8l3-3 3 3 2-2-3-3 3-3H4zm16 0 3 3-3 3 2 2 3-3 3 3V4h-8zM4 20v8h8l-3-3 3-3-2-2-3 3-3-3zm18 0-2 2 3 3-3 3h8v-8l-3 3-3-3z" style="fill:var(--color2, #c8c8c8)"/>
    </symbol>
    <symbol id="icon-play3" viewBox="0 0 32 32">
      <path fill="#c8c8c8" d="m15.862.972-4.994 5.257.144 3.677 3.162 2.263 1.994 11.375.675-1.681.738-14.713 1.169.063-.569 11.312L19.95 14.1l.512-6.75.056-1.121L15.862.972zm8.688 3.161-2.913 3.173-.244 3.194.663-1.637 1.9-.856c.2-1.287.394-2.581.594-3.873zm3.769 3.198-5.356 2.4-6.413 15.994.913 5.206h.488l9.225-18.319 1.044.525-8.963 17.794h1.525l9.163-18.238L28.32 7.33zM7.056 8.512l-3.382 6.194 4.319 16.225h5.85l-3.194-17.175 1.144-.213 3.237 17.388h1.244l-3.169-18.087-6.05-4.331zM29.45 24.787l-4.113-.325-3.113 6.2 4.363-2.294 2.863-3.581zm-27.248-1.75 2.654 7.919h1.937l-1.756-6.587-2.835-1.331z" style="fill:var(--color2, #c8c8c8)"/>
    </symbol>
    <symbol id="icon-play4" viewBox="0 0 32 32">
      <path fill="#c8c8c8" d="M20.059.83c-1.04 2.162-2.404 3.76-3.943 3.76-1.533 0-2.94-1.58-3.979-3.725.023 2.46-.607 5.68-1.934 6.57S7.1 6.685 5.275 5.427c1.091 2.127 2.631 4.219 1.861 5.768-.763 1.536-3.698 2.248-5.805 2.227 1.834 1.206 4.928 2.863 4.928 4.637s-3.094 3.357-4.928 4.563c2.106-.021 5.041.726 5.805 2.262.764 1.538-.564 3.519-2.109 5.348 2.802-.963 4.071-.358 5.336.676h1.984c-2.671-2.213-4.504-6.739-4.504-11.973 0-7.414 3.683-13.432 8.213-13.432s8.213 6.018 8.213 13.432c0 5.234-1.832 9.759-4.504 11.973h1.707c1.241-.914 2.487-1.603 5.605-.58-1.64-1.892-2.637-3.905-1.873-5.444.766-1.541 3.541-2.288 5.658-2.262-1.837-1.206-4.709-2.787-4.709-4.563s2.872-3.431 4.709-4.637c-2.117.027-4.892-.685-5.658-2.227-.77-1.549.624-3.64 1.715-5.768-1.825 1.258-3.599 2.899-4.928 2.008S20.03 3.302 20.057.829zm-4.311 5.859c-1.223.159-2.334 1.598-2.334 3.463 0 1.028.354 1.937.875 2.564l.635.764-.975.184c-.676.127-1.171.484-1.596 1.066s-.749 1.397-.977 2.334c-.412 1.695-.505 3.765-.519 5.592h2.256l.041.541.57 7.66h4.762l.506-7.656.035-.545h2.148c-.002-1.849-.027-3.948-.401-5.656-.206-.943-.518-1.756-.947-2.332s-.946-.931-1.705-1.049l-.996-.154.629-.787c.498-.625.836-1.523.836-2.525 0-1.989-1.243-3.457-2.59-3.457-.159 0-.248-.006-.252-.006h-.002z" style="fill:var(--color2, #c8c8c8)"/>
    </symbol>
  </defs>
</svg>
